# xmcd
#
# Track frame offsets:
#	150
#	15574
#	33993
#	44957
#	64606
#	81533
#	94689
#	116431
#	133467
#	152029
#	162420
#
# Disc length: 2474 seconds
#
# Revision: 2
# Processed by: cddbd v1.5.1PL2 Copyright (c) Steve Scherf et al.
# Submitted via: dBpowerAMP V4.0
#
DISCID=9609a80b
DTITLE=Brian Cadd - The Best of Brian Cadd - Volume 2
DYEAR=1900
DGENRE=
TTITLE0=Kingston River Travellin'Man
TTITLE1=All in the Way [They use in my Face]
TTITLE2=Alvin Purple
TTITLE3=Let Go
TTITLE4=Think it Over
TTITLE5=Moonshine
TTITLE6=Sweet Rock and Roll
TTITLE7=Fire at Shepard's Flat
TTITLE8=Mr Music
TTITLE9=Song for Wendy
TTITLE10=Rich Man [Poor Man, Beggar Man]
EXTD=
EXTT0=
EXTT1=
EXTT2=
EXTT3=
EXTT4=
EXTT5=
EXTT6=
EXTT7=
EXTT8=
EXTT9=
EXTT10=
PLAYORDER=
